<svg viewBox="0 0 62 38" fill="none" xmlns="http://www.w3.org/2000/svg">
<path d="M17.4722 13.9652C17.4722 14.7282 17.5546 15.3468 17.699 15.8004C17.8639 16.2541 18.0702 16.749 18.3588 17.2851C18.4619 17.4501 18.5032 17.615 18.5032 17.7594C18.5032 17.9656 18.3795 18.1718 18.1114 18.378L16.8123 19.2441C16.6267 19.3678 16.4411 19.4297 16.2762 19.4297C16.07 19.4297 15.8638 19.3266 15.6575 19.141C15.3689 18.8317 15.1214 18.5017 14.9152 18.1718C14.709 17.8213 14.5028 17.4295 14.276 16.9552C12.6676 18.8523 10.6468 19.8008 8.21353 19.8008C6.48141 19.8008 5.09983 19.3059 4.08943 18.3161C3.07902 17.3264 2.56351 16.0066 2.56351 14.357C2.56351 12.6043 3.18212 11.1814 4.43998 10.1092C5.69783 9.0369 7.36809 8.50077 9.49201 8.50077C10.1931 8.50077 10.9148 8.56263 11.6778 8.66573C12.4407 8.76884 13.2243 8.9338 14.0491 9.11939V7.61409C14.0491 6.04693 13.7192 4.95404 13.08 4.3148C12.4201 3.67556 11.3066 3.36626 9.71883 3.36626C8.99711 3.36626 8.25478 3.44874 7.49182 3.63432C6.72886 3.81991 5.98652 4.04673 5.2648 4.33542C4.93487 4.47976 4.68742 4.56225 4.54308 4.60349C4.39874 4.64473 4.29563 4.66535 4.21315 4.66535C3.92446 4.66535 3.78012 4.45914 3.78012 4.02611V3.01571C3.78012 2.68578 3.82136 2.43833 3.92446 2.29399C4.02757 2.14964 4.21315 2.0053 4.50184 1.86096C5.22356 1.48979 6.08962 1.18048 7.10003 0.933031C8.11043 0.664964 9.1827 0.541241 10.3168 0.541241C12.7707 0.541241 14.5647 1.098 15.7194 2.2115C16.8535 3.32501 17.4309 5.0159 17.4309 7.28416V13.9652H17.4722ZM9.10022 17.0995C9.7807 17.0995 10.4818 16.9758 11.2241 16.7284C11.9665 16.4809 12.6263 16.0273 13.1831 15.4087C13.513 15.0169 13.7605 14.5838 13.8842 14.0889C14.0079 13.594 14.0904 12.996 14.0904 12.2949V11.4289C13.4924 11.2845 12.8532 11.1608 12.1933 11.0783C11.5334 10.9959 10.8942 10.9546 10.255 10.9546C8.87339 10.9546 7.86299 11.2227 7.18251 11.7794C6.50203 12.3362 6.1721 13.1198 6.1721 14.1508C6.1721 15.12 6.41955 15.8417 6.93506 16.3366C7.42995 16.8521 8.15167 17.0995 9.10022 17.0995ZM25.6585 19.3266C25.2873 19.3266 25.0399 19.2647 24.8749 19.1203C24.71 18.9966 24.5656 18.7079 24.4419 18.3161L19.5961 2.37647C19.4723 1.96406 19.4105 1.69599 19.4105 1.55165C19.4105 1.22172 19.5755 1.03613 19.9054 1.03613H21.9262C22.318 1.03613 22.5861 1.098 22.7304 1.24234C22.8954 1.36606 23.0191 1.65475 23.1428 2.04654L26.6071 15.6973L29.8239 2.04654C29.927 1.63413 30.0507 1.36606 30.2157 1.24234C30.3806 1.11862 30.6693 1.03613 31.0405 1.03613H32.6901C33.0819 1.03613 33.35 1.098 33.5149 1.24234C33.6799 1.36606 33.8242 1.65475 33.9067 2.04654L37.1648 15.8623L40.7321 2.04654C40.8559 1.63413 41.0002 1.36606 41.1445 1.24234C41.3095 1.11862 41.5776 1.03613 41.9487 1.03613H43.8664C44.1964 1.03613 44.382 1.2011 44.382 1.55165C44.382 1.65475 44.3613 1.75785 44.3407 1.88158C44.3201 2.0053 44.2789 2.17026 44.1964 2.39709L39.2268 18.3368C39.1031 18.7492 38.9588 19.0172 38.7938 19.141C38.6288 19.2647 38.3608 19.3472 38.0102 19.3472H36.2369C35.8451 19.3472 35.577 19.2853 35.412 19.141C35.2471 18.9966 35.1027 18.7286 35.0202 18.3161L31.8241 5.0159L28.6485 18.2955C28.5454 18.7079 28.4217 18.976 28.2567 19.1203C28.0917 19.2647 27.803 19.3266 27.4319 19.3266H25.6585ZM52.1559 19.8833C51.0836 19.8833 50.0114 19.7596 48.9803 19.5121C47.9493 19.2647 47.1451 18.9966 46.609 18.6873C46.2791 18.5017 46.0522 18.2955 45.9697 18.1099C45.8873 17.9244 45.846 17.7182 45.846 17.5326V16.4809C45.846 16.0479 46.011 15.8417 46.3203 15.8417C46.444 15.8417 46.5677 15.8623 46.6915 15.9035C46.8152 15.9448 47.0008 16.0273 47.207 16.1097C47.9081 16.4191 48.671 16.6665 49.4752 16.8315C50.3001 16.9964 51.1043 17.0789 51.9291 17.0789C53.2282 17.0789 54.2386 16.8521 54.9397 16.3984C55.6408 15.9448 56.0119 15.2849 56.0119 14.4395C56.0119 13.8621 55.8264 13.3878 55.4552 12.996C55.084 12.6043 54.3829 12.2537 53.3725 11.9238L50.3825 10.9959C48.8772 10.5216 47.7637 9.82049 47.0833 8.89256C46.4028 7.98526 46.0522 6.97485 46.0522 5.90258C46.0522 5.03652 46.2378 4.27356 46.609 3.6137C46.9802 2.95384 47.475 2.37647 48.0937 1.92282C48.7123 1.44854 49.4134 1.098 50.2382 0.850549C51.063 0.603103 51.9291 0.5 52.8364 0.5C53.29 0.5 53.7643 0.520621 54.218 0.582482C54.6922 0.644344 55.1253 0.726826 55.5583 0.809308C55.9707 0.912411 56.3625 1.01551 56.7337 1.13924C57.1048 1.26296 57.3935 1.38668 57.5997 1.51041C57.8884 1.67537 58.0946 1.84034 58.2183 2.02592C58.3421 2.19088 58.4039 2.41771 58.4039 2.7064V3.67556C58.4039 4.10859 58.239 4.33542 57.9297 4.33542C57.7647 4.33542 57.4966 4.25294 57.1461 4.08797C55.9707 3.55184 54.651 3.28377 53.1869 3.28377C52.0116 3.28377 51.0836 3.46936 50.4444 3.86115C49.8052 4.25294 49.4752 4.85093 49.4752 5.69638C49.4752 6.27375 49.6814 6.76864 50.0939 7.16043C50.5063 7.55223 51.2692 7.94402 52.3621 8.29456L55.2902 9.22249C56.7749 9.69676 57.8472 10.3566 58.4864 11.2021C59.1256 12.0475 59.435 13.0167 59.435 14.0889C59.435 14.9756 59.2494 15.7798 58.8988 16.4809C58.5277 17.182 58.0328 17.8006 57.3935 18.2955C56.7543 18.811 55.9913 19.1822 55.1046 19.4503C54.1767 19.739 53.2076 19.8833 52.1559 19.8833Z" fill="#252F3E"/>
<path d="M56.0532 29.9049C49.2691 34.9157 39.4125 37.5757 30.9374 37.5757C19.06 37.5757 8.35792 33.1835 0.274669 25.8839C-0.364568 25.3065 0.212807 24.5229 0.975768 24.9766C9.71888 30.0492 20.5034 33.1217 31.6591 33.1217C39.1856 33.1217 47.4545 31.5545 55.0634 28.3377C56.1976 27.8222 57.1667 29.08 56.0532 29.9049Z" fill="#FF9900"/>
<path d="M58.8783 26.6881C58.0122 25.5746 53.1458 26.1519 50.9394 26.42C50.2795 26.5025 50.1764 25.9251 50.7744 25.4921C54.6511 22.7702 61.0228 23.5538 61.7651 24.4611C62.5075 25.389 61.5589 31.7607 57.9297 34.8126C57.373 35.2868 56.8368 35.0394 57.0843 34.4208C57.9091 32.3793 59.7443 27.781 58.8783 26.6881Z" fill="#FF9900"/>
</svg>
