<svg viewBox="0 0 62 51" fill="none" xmlns="http://www.w3.org/2000/svg">
<path d="M39.4553 14.2834L41.4412 14.3173L46.8372 8.92134L47.0987 6.63509C42.8188 2.82209 37.1681 0.5 30.9933 0.5C19.8139 0.5 10.3783 8.10662 7.58539 18.4102C8.17439 17.9995 9.43376 18.3075 9.43376 18.3075L20.2159 16.5347C20.2159 16.5347 20.7701 15.6173 21.051 15.6629C22.3118 14.2777 23.848 13.1713 25.5613 12.4144C27.2746 11.6575 29.1271 11.2669 31.0001 11.2676C34.1969 11.2744 37.1419 12.404 39.4553 14.2727V14.2834Z" fill="#EA4335"/>
<path d="M54.4147 18.4315C53.1621 13.8106 50.5804 9.73022 47.0958 6.63507L39.4553 14.2756C42.5165 16.7459 44.4802 20.526 44.4802 24.7575V26.106C48.1973 26.106 51.2169 29.1323 51.2169 32.8426C51.2169 36.5597 48.1905 39.5793 44.4802 39.5793H31.0068L29.6583 40.9356V49.0208L31.0068 50.3625H44.4802C49.1246 50.3561 53.577 48.5083 56.8611 45.2243C60.1453 41.9403 61.9933 37.488 62 32.8436C61.9932 26.881 58.9969 21.6052 54.4147 18.4315Z" fill="#4285F4"/>
<path d="M17.5198 50.3712H30.9855V39.5794H17.5198C16.5632 39.5795 15.6176 39.374 14.7473 38.9768L12.803 39.5726L7.40708 44.9685L6.93433 46.7898C9.97512 49.1095 13.6943 50.3653 17.5189 50.3635L17.5198 50.3712Z" fill="#34A853"/>
<path d="M17.5198 15.3315C12.8754 15.3379 8.42305 17.1857 5.13886 20.4697C1.85467 23.7537 0.00666344 28.206 0 32.8504C0 38.5399 2.72509 43.5987 6.94206 46.8033L14.754 38.9913C13.5716 38.4581 12.5681 37.5952 11.8637 36.506C11.1594 35.4168 10.7842 34.1475 10.7831 32.8504C10.7831 29.1333 13.8095 26.1137 17.5198 26.1137C20.2517 26.1137 22.5999 27.7606 23.6617 30.0856L31.4737 22.2736C28.27 18.0566 23.2103 15.3315 17.5208 15.3315H17.5198Z" fill="#FBBC05"/>
</svg>
