<svg xmlns="http://www.w3.org/2000/svg" viewBox="0 0 62 63" fill="none">
<path d="M28.9697 0.516684C28.8364 0.528804 28.4121 0.571222 28.0303 0.60152C19.2242 1.39534 10.9758 6.14616 5.75152 13.4481C2.84242 17.5081 0.981818 22.1135 0.278788 26.9916C0.030303 28.6944 0 29.1973 0 31.5061C0 33.8148 0.030303 34.3178 0.278788 36.0206C1.96364 47.6613 10.2485 57.4417 21.4848 61.0654C23.497 61.7138 25.6182 62.1561 28.0303 62.4227C28.9697 62.5258 33.0303 62.5258 33.9697 62.4227C38.1333 61.9622 41.6606 60.932 45.1394 59.1566C45.6727 58.8839 45.7758 58.8111 45.703 58.7505C45.6545 58.7142 43.3818 55.6662 40.6545 51.9818L35.697 45.2859L29.4848 36.0933C26.0667 31.0395 23.2545 26.9067 23.2303 26.9067C23.2061 26.9007 23.1818 30.9849 23.1697 35.9721C23.1515 44.7041 23.1455 45.0556 23.0364 45.2616C22.8788 45.5586 22.7576 45.6797 22.503 45.8131C22.3091 45.91 22.1394 45.9282 21.2242 45.9282H20.1758L19.897 45.7525C19.7152 45.6373 19.5818 45.4858 19.4909 45.3101L19.3636 45.0374L19.3758 32.8877L19.3939 20.7319L19.5818 20.4956C19.6788 20.3683 19.8848 20.2047 20.0303 20.1259C20.2788 20.0047 20.3758 19.9926 21.4242 19.9926C22.6606 19.9926 22.8667 20.0411 23.1879 20.3926C23.2788 20.4895 26.6424 25.5554 30.6667 31.6576C34.6909 37.7597 40.1939 46.0918 42.897 50.1821L47.8061 57.6174L48.0545 57.4538C50.2545 56.0237 52.5818 53.9876 54.4242 51.8667C58.3455 47.3643 60.8727 41.8742 61.7212 36.0206C61.9697 34.3178 62 33.8148 62 31.5061C62 29.1973 61.9697 28.6944 61.7212 26.9916C60.0364 15.3509 51.7515 5.57049 40.5151 1.94678C38.5333 1.30445 36.4242 0.862088 34.0606 0.595461C33.4788 0.534864 29.4727 0.468207 28.9697 0.516684ZM41.6606 19.2654C41.9515 19.4109 42.1879 19.6896 42.2727 19.9805C42.3212 20.138 42.3333 23.5072 42.3212 31.1001L42.303 41.9954L40.3818 39.0504L38.4545 36.1054V28.1853C38.4545 23.0649 38.4788 20.1865 38.5152 20.0471C38.6121 19.7078 38.8242 19.4412 39.1152 19.2836C39.3636 19.1564 39.4545 19.1443 40.4061 19.1443C41.303 19.1443 41.4606 19.1564 41.6606 19.2654Z" fill="black"/>
</svg>