<svg viewBox="0 0 66 69" fill="none" xmlns="http://www.w3.org/2000/svg">
<path d="M49.1052 49.8763C49.5348 46.2999 49.4057 45.778 52.0676 46.3552L52.7449 46.4158C54.7927 46.5081 57.4705 46.0864 59.0702 45.3564C62.4569 43.7856 64.4652 41.1606 61.126 41.8511C53.5092 43.4219 52.9558 40.8417 52.9558 40.8417C61.0021 28.9027 64.3677 13.7483 61.4607 10.0401C53.5435 -0.0803776 39.836 4.70577 39.6068 4.83227L39.533 4.84545C38.0307 4.52919 36.3703 4.3447 34.4464 4.31834C30.9991 4.26563 28.3846 5.22233 26.3974 6.72723C26.3974 6.72723 1.9475 -3.34581 3.08342 19.3963C3.32589 24.2351 10.0149 56.0303 18.0006 46.4106C20.9234 42.8948 23.7434 39.9245 23.7434 39.9245C25.1403 40.8549 26.8191 41.3293 28.577 41.1579L28.7141 41.042C28.6735 41.4975 28.6921 41.9564 28.7694 42.4072C26.7137 44.7054 27.3199 45.1086 23.2084 45.9546C19.0495 46.8112 21.4953 48.3372 23.0872 48.7378C25.0217 49.2227 29.4968 49.9079 32.5224 45.6753L32.4012 46.1576C33.2077 46.8033 33.1523 50.7961 33.2709 53.6478C33.3895 56.4994 33.5766 59.164 34.1591 60.7321C34.7415 62.3003 35.4241 66.3458 40.827 65.2125C45.3417 64.2453 48.7943 62.8511 49.1105 49.9" fill="black"/>
<path d="M49.1052 49.8763C49.5348 46.2999 49.4057 45.778 52.0676 46.3552L52.7449 46.4158C54.7927 46.5081 57.4705 46.0864 59.0702 45.3564C62.4569 43.7856 64.4652 41.1606 61.126 41.8511C53.5092 43.4219 52.9558 40.8417 52.9558 40.8417C61.0021 28.9027 64.3677 13.7483 61.4607 10.0401C53.5435 -0.0803775 39.836 4.70577 39.6068 4.83227L39.533 4.84545C38.0307 4.52919 36.3703 4.3447 34.4464 4.31834C30.9991 4.26563 28.3846 5.22233 26.3974 6.72723C26.3974 6.72723 1.9475 -3.34581 3.08342 19.3963C3.32589 24.2351 10.0149 56.0303 18.0006 46.4106C20.9234 42.8948 23.7434 39.9245 23.7434 39.9245C25.1403 40.8549 26.8191 41.3293 28.577 41.1579L28.7141 41.042C28.6735 41.4975 28.6921 41.9564 28.7694 42.4072C26.7137 44.7054 27.3199 45.1086 23.2084 45.9546C19.0495 46.8112 21.4953 48.3372 23.0872 48.7378C25.0217 49.2227 29.4968 49.9079 32.5224 45.6753L32.4012 46.1576C33.2077 46.8033 33.1523 50.7961 33.2709 53.6478C33.3895 56.4994 33.5766 59.164 34.1591 60.7321C34.7415 62.3003 35.4241 66.3458 40.827 65.2125C45.3417 64.2453 48.7943 62.8511 49.1105 49.9" stroke="black" stroke-width="5.3725"/>
<path d="M61.1023 41.8748C53.4856 43.4456 52.9321 40.8654 52.9321 40.8654C60.9785 28.9264 64.344 13.772 61.4397 10.0638C53.5225 -0.0566669 39.8151 4.73211 39.5858 4.85598L39.512 4.86916C37.8377 4.53322 36.1355 4.35586 34.428 4.33942C30.9807 4.28671 28.3663 5.24341 26.3791 6.7483C26.3791 6.7483 1.92651 -3.32474 3.06507 19.4174C3.30753 24.2562 9.99654 56.0514 17.9822 46.4317C20.9235 42.8948 23.7435 39.9245 23.7435 39.9245C25.1404 40.8548 26.8192 41.3292 28.5771 41.1579L28.7142 41.042C28.6739 41.4975 28.6925 41.9564 28.7695 42.4072C26.7138 44.7054 27.32 45.1086 23.2085 45.9546C19.0496 46.8112 21.4954 48.3372 23.0873 48.7378C25.0218 49.2227 29.4969 49.9079 32.5225 45.6753L32.4013 46.1576C33.2078 46.8033 33.7718 50.356 33.6769 53.5766C33.582 56.7972 33.5187 59.0058 34.1513 60.7347C34.7838 62.4637 35.4163 66.3484 40.8192 65.2152C45.3339 64.2479 47.6716 61.7362 48.001 57.5563C48.233 54.5834 48.7548 55.0209 48.7917 52.3643L49.2134 51.1045C49.6957 47.0721 49.2925 45.7728 52.073 46.3789L52.7503 46.4396C54.7981 46.5318 57.4785 46.1101 59.0492 45.3801C62.4359 43.8093 64.4416 41.1843 61.1023 41.8748Z" fill="#336791"/>
<path d="M32.8466 44.1598C32.6358 51.6606 32.8993 59.2141 33.632 61.0273C34.3647 62.8406 35.9381 66.4302 41.3436 65.2758C45.8583 64.3086 47.5029 62.4347 48.2145 58.2995L49.8828 45.077M26.3685 6.55857C26.3685 6.55857 1.90009 -3.44594 3.03864 19.2961C3.28111 24.135 9.97012 55.9302 17.9558 46.3105C20.8707 42.7973 23.5063 40.0484 23.5063 40.0484M39.5831 4.73214C38.7397 4.9957 53.193 -0.552119 61.4106 9.94524C64.3097 13.6535 60.9494 28.8078 52.9031 40.7468" stroke="white" stroke-width="1.79" stroke-linecap="round" stroke-linejoin="round"/>
<path d="M52.9057 40.7415C52.9057 40.7415 53.4328 43.3244 61.0759 41.7483C64.4151 41.0578 62.4042 43.6828 59.0202 45.2536C56.2423 46.545 50.0119 46.8745 49.9091 45.0955C49.6456 40.4964 53.1877 41.8933 52.9321 40.7415C52.7002 39.7031 51.1136 38.6858 50.0699 36.1452C49.1554 33.9313 37.5247 16.9321 53.2958 19.4543C53.8756 19.3357 49.1844 4.43169 34.4253 4.21558C19.6663 3.99946 20.1328 22.3613 20.1328 22.3613" stroke="white" stroke-width="1.79" stroke-linecap="round" stroke-linejoin="bevel"/>
<path d="M28.7167 42.3176C26.661 44.6158 27.2672 45.019 23.1557 45.865C18.9968 46.7216 21.4426 48.2475 23.0345 48.6481C24.969 49.1331 29.4441 49.8183 32.4697 45.583C33.3922 44.2916 32.4644 42.2359 31.1994 41.714C30.5879 41.461 29.7709 41.1448 28.722 42.3202L28.7167 42.3176Z" stroke="white" stroke-width="1.79" stroke-linejoin="round"/>
<path d="M28.5824 42.2781C28.3715 40.926 29.0251 39.321 29.7236 37.4392C30.7725 34.6192 33.1919 31.7991 31.2575 22.8462C29.8158 16.1783 20.1355 21.4573 20.1355 22.3613C20.1355 23.2653 20.573 26.9471 19.9773 31.2299C19.1946 36.8225 23.5353 41.5506 28.5323 41.0683" stroke="white" stroke-width="1.79" stroke-linecap="round" stroke-linejoin="round"/>
<path d="M26.2789 22.2269C26.2341 22.5352 26.8456 23.3602 27.6389 23.4708C28.4322 23.5815 29.1095 22.9385 29.1543 22.6275C29.1991 22.3165 28.5877 21.9791 27.7944 21.8684C27.0011 21.7577 26.3185 21.9212 26.2789 22.2269Z" fill="white" stroke="white" stroke-width="0.5975"/>
<path d="M50.431 21.597C50.4731 21.9053 49.8643 22.7303 49.071 22.841C48.2777 22.9517 47.5951 22.3086 47.5556 21.9976C47.5161 21.6866 48.1222 21.3492 48.9155 21.2386C49.7088 21.1279 50.3914 21.2913 50.431 21.597Z" fill="white" stroke="white" stroke-width="0.2975"/>
<path d="M53.2668 19.4595C53.3986 21.8842 52.7449 23.5314 52.6606 26.1116C52.5394 29.8594 54.4475 34.15 51.5721 38.446" stroke="white" stroke-width="1.79" stroke-linecap="round" stroke-linejoin="round"/>
</svg>
