<svg viewBox="0 0 62 63" fill="none" xmlns="http://www.w3.org/2000/svg">
<path d="M0 31.5V0.5H62V62.5H0" fill="#007ACC"/>
<path d="M13.5935 31.6085V34.135H21.6535V57.075H27.373V34.135H35.433V31.655C35.433 30.26 35.433 29.1285 35.371 29.0975C35.371 29.051 30.4575 29.0355 24.49 29.0355L13.64 29.082V31.624L13.5935 31.6085ZM49.817 29.02C51.398 29.392 52.607 30.105 53.692 31.2365C54.2655 31.8565 55.118 32.9415 55.18 33.2205C55.18 33.3135 52.4985 35.127 50.871 36.1345C50.809 36.181 50.561 35.9175 50.313 35.5145C49.507 34.3675 48.6855 33.8715 47.399 33.7785C45.539 33.6545 44.299 34.631 44.299 36.2585C44.299 36.7545 44.392 37.0335 44.578 37.4365C44.9965 38.289 45.7715 38.8005 48.174 39.8545C52.607 41.761 54.529 43.0165 55.6915 44.8145C57.009 46.8295 57.3035 49.9915 56.42 52.363C55.428 54.9515 53.01 56.703 49.5535 57.2765C48.4685 57.4625 45.9885 57.4315 44.826 57.23C42.346 56.765 39.9745 55.525 38.5175 53.9285C37.944 53.3085 36.8435 51.65 36.9055 51.5415L37.4945 51.1695L39.8195 49.821L41.571 48.798L41.974 49.3405C42.4855 50.1465 43.6325 51.2315 44.299 51.6035C46.314 52.642 49.011 52.5025 50.344 51.2935C50.9175 50.7665 51.1655 50.2085 51.1655 49.4335C51.1655 48.7205 51.057 48.395 50.7005 47.8525C50.2045 47.1705 49.2125 46.6125 46.4225 45.3725C43.214 44.0085 41.85 43.1405 40.579 41.8075C39.8505 41.0015 39.184 39.746 38.874 38.7075C38.6415 37.8085 38.564 35.6075 38.781 34.724C39.4475 31.624 41.788 29.454 45.136 28.834C46.221 28.617 48.7785 28.71 49.848 28.989L49.817 29.02Z" fill="white"/>
</svg>
