<svg xmlns="http://www.w3.org/2000/svg" viewBox="0 0 767 345" fill="none">
<g style="mix-blend-mode:difference">
<path fill-rule="evenodd" clip-rule="evenodd" d="M347.889 344.102L490.925 31.4554L491 31.3965L466.198 0.0930133L466.215 0.0552481H466.168L466.124 0L466.054 0.0552481H405.358L256 318.153H256.023L256.017 318.162L291.435 344.07L291.42 344.102H291.479L291.492 344.111L291.499 344.102H347.889ZM260.55 318.153L292.584 341.585L303.415 318.153H260.55ZM307.137 310.103H268.674L410.346 8.37387L435.23 33.004L307.137 310.103ZM310.093 310.103L437.7 34.0545H441.807L315.514 310.103H310.093ZM306.372 318.153L295.617 341.418H344.029L319.551 318.153H306.372ZM321.521 316.323L450.66 34.0545H486.785L346.698 340.253L321.521 316.323ZM451.888 31.371H487.556L464.944 2.83235L451.888 31.371ZM443.035 31.371L453.679 8.10564H413.889L437.394 31.371H443.035Z" fill="#0B47DD"/>
<path fill-rule="evenodd" clip-rule="evenodd" d="M314.854 33V96.1237L313.768 96.6149L282.376 122.985L282.359 122.968V122.988L147.75 183.835L258.662 234.387L259 234.5L222.812 263.263L220.458 264.247L162.237 291.851L6.42907e-05 217.372L6.52577e-05 195.25L0 195.25L6.52577e-05 195.25L6.52588e-05 195.225L0.0372761 195.208L26.927 164.882V164.802L314.854 33ZM26.927 182.902L6.11705 192.426L26.927 169.303V182.902ZM210.265 257.582L248.424 239.482L221.359 260.852L219.316 261.706L210.265 257.582ZM282.359 119.374L304.426 100.838L282.359 110.812V119.374ZM35.2792 179.079V170.168L299.802 49.0793L280.799 66.7144L35.2792 179.079ZM306.502 90.7303V46.6602L282.359 69.065V101.643L306.502 90.7303ZM26.927 185.964L2.78412 197.014L2.78412 214.598L26.9684 190.543L26.927 190.524V185.964ZM29.6704 191.783L4.80597 216.514L161.945 288.652L189.524 265.14L29.6704 191.783ZM193.17 265.691L170.941 284.642L216.025 263.267L206.974 259.143L193.17 265.691ZM197.031 254.612L191.909 257.042L35.2792 185.164V182.142L279.575 70.337V102.902L114.123 177.691L134.269 186.873L91.1495 206.364L197.031 254.612ZM200.322 253.051L239.105 234.655L137.635 188.407L97.8883 206.374L200.322 253.051ZM144.383 182.301L279.575 121.191V112.071L134.337 177.722L144.383 182.301Z" fill="#0B47DD"/>
<path fill-rule="evenodd" clip-rule="evenodd" d="M451.16 276.282V276.266L451.131 276.243L451.16 276.206L451.16 213.158L616.884 138.246L547.377 106.573L547.372 106.585L543.398 104.831L509.674 75.9522L507.096 74.7775L574.047 43.0203L739.088 118.757V118.835L739.148 118.784L766.014 150.59L766.008 150.595L766.01 150.596V172.743L483.694 301.948L483.649 302.006L451.173 276.276L451.16 276.282ZM760.071 147.87L739.088 123.027V138.237L760.071 147.87ZM557.829 97.9003L546.626 103.212L544.897 102.449L518.827 80.124L557.829 97.9003ZM483.65 298.454L454.015 274.975L483.651 261.409L483.65 298.454ZM486.435 260.134L486.435 297.631L762.228 171.411L736.691 145.577L486.435 260.134ZM763.226 152.382V168.46L739.088 144.041V141.301L763.226 152.382ZM730.736 137.467V139.114L486.435 250.946V246.778L674.86 161.604L630.357 141.325L651.892 131.591L571.017 94.7296L603.792 79.1908L730.736 137.467ZM730.736 134.403V124.117L580.747 55.2875L603.383 76.3026L603.773 76.1177L730.736 134.403ZM600.674 77.5871L567.703 93.2189L526.91 74.6263L573.62 52.4702L600.674 77.5871ZM561.143 99.411L549.985 104.701L620.256 136.722L631.678 131.559L561.143 99.411ZM626.985 142.849L668.122 161.594L485.351 244.211L459.824 218.411L626.985 142.849ZM459.512 222.055L483.651 246.452V252.22L459.512 263.27L459.512 222.055Z" fill="#0B47DD"/>
</g>
</svg>