<svg xmlns="http://www.w3.org/2000/svg" width="519" height="354" viewBox="0 0 519 354" fill="none">
<g style="mix-blend-mode:difference" clip-path="url(#clip0_182_13260)">
<path fill-rule="evenodd" clip-rule="evenodd" d="M-0.015625 0.0550537H62.9749L163.343 220.163L263.631 0.0550537H326.374L176.482 327.304H149.848L-0.015625 0.0550537ZM12.895 8.33705L155.173 319.022H171.157L313.462 8.33705H268.967L163.346 240.15L57.6403 8.33705H12.895Z" fill="#0B47DD"/>
<path fill-rule="evenodd" clip-rule="evenodd" d="M34.1113 32.2722H91.02L193.14 256.282L295.233 32.2722H351.866L204.503 354H181.418L34.1113 32.2722ZM38.4145 35.0328L183.194 351.239H202.728L347.562 35.0328H297.012L193.141 262.944L89.2416 35.0328H38.4145Z" fill="#0B47DD"/>
<path fill-rule="evenodd" clip-rule="evenodd" d="M88.9774 34.0624L60.8965 1.87306L62.9803 0.0594482L91.0612 32.2488L88.9774 34.0624Z" fill="#0B47DD"/>
<path fill-rule="evenodd" clip-rule="evenodd" d="M7.4404 3.21515L37.2349 32.6714L35.2906 34.6335L5.49609 5.17722L7.4404 3.21515Z" fill="#0B47DD"/>
<path fill-rule="evenodd" clip-rule="evenodd" d="M295.15 34.634L265.328 5.17769L267.272 3.21472L297.094 32.671L295.15 34.634Z" fill="#0B47DD"/>
<path fill-rule="evenodd" clip-rule="evenodd" d="M349.707 34.0122L324.113 1.71241L326.281 -0.000854492L351.874 32.2989L349.707 34.0122Z" fill="#0B47DD"/>
<path fill-rule="evenodd" clip-rule="evenodd" d="M202.642 353.601L172.848 324.144L174.792 322.182L204.587 351.639L202.642 353.601Z" fill="#0B47DD"/>
<path fill-rule="evenodd" clip-rule="evenodd" d="M181.44 353.978L149.877 327.365L151.66 325.256L183.223 351.869L181.44 353.978Z" fill="#0B47DD"/>
<path fill-rule="evenodd" clip-rule="evenodd" d="M430.838 41.7964H493.479L362.685 327.304H337.16L262.002 163.651L293.516 97.2626L349.864 220.797L430.838 41.7964ZM436.19 50.0784L349.895 240.841L293.366 116.91L271.151 163.709L342.478 319.022H357.361L480.567 50.0784H436.19Z" fill="#0B47DD"/>
<path fill-rule="evenodd" clip-rule="evenodd" d="M462.416 74.0134H518.969L390.732 354H368.754L294.846 193.127L323.26 133.239L379.669 256.934L462.416 74.0134ZM464.2 76.7741L379.679 263.617L323.211 139.79L297.895 193.145L370.527 351.239H388.957L514.665 76.7741H464.2Z" fill="#0B47DD"/>
<path fill-rule="evenodd" clip-rule="evenodd" d="M516.839 75.7262L491.273 43.4816L493.44 41.7677L519.006 74.0123L516.839 75.7262Z" fill="#0B47DD"/>
<path fill-rule="evenodd" clip-rule="evenodd" d="M462.336 76.3748L432.541 46.9185L434.485 44.9564L464.28 74.4127L462.336 76.3748Z" fill="#0B47DD"/>
<path fill-rule="evenodd" clip-rule="evenodd" d="M320.975 134.746L292.031 100.972L294.131 99.1765L323.339 133.26L325.08 137.2L322.551 138.314L320.975 134.746Z" fill="#0B47DD"/>
<path fill-rule="evenodd" clip-rule="evenodd" d="M296.269 194.075L266.336 161.858L268.362 159.98L298.295 192.197L296.269 194.075Z" fill="#0B47DD"/>
<path fill-rule="evenodd" clip-rule="evenodd" d="M388.873 353.601L359.051 324.145L360.994 322.182L390.816 351.638L388.873 353.601Z" fill="#0B47DD"/>
<path fill-rule="evenodd" clip-rule="evenodd" d="M368.749 354.005L337.186 327.365L338.969 325.256L370.533 351.897L368.749 354.005Z" fill="#0B47DD"/>
</g>
<defs>
<clipPath id="clip0_182_13260">
<rect width="519" height="354" fill="white"/>
</clipPath>
</defs>
</svg>