<svg xmlns="http://www.w3.org/2000/svg" viewBox="0 0 386 345" fill="none">
<g style="mix-blend-mode:difference">
<path fill-rule="evenodd" clip-rule="evenodd" d="M91.8947 344.102L234.932 31.4554L235.006 31.3965L210.204 0.0927691L210.221 0.0552481H210.174L210.13 0L210.06 0.0552481H149.364L0.00585938 318.153H0.0292996L0.0227592 318.162L35.4413 344.07L35.4264 344.102H35.4855L35.4981 344.111L35.5049 344.102H91.8947ZM4.55583 318.153L36.5899 341.585L47.4216 318.153H4.55583ZM51.143 310.103H12.6794L154.352 8.37366L179.236 33.004L51.143 310.103ZM54.0993 310.103L181.706 34.0545H185.813L59.5201 310.103H54.0993ZM50.3779 318.153L39.6232 341.418H88.0353L63.5575 318.153H50.3779ZM65.5272 316.323L194.666 34.0545H230.792L90.7045 340.253L65.5272 316.323ZM195.894 31.371H231.562L208.95 2.8321L195.894 31.371ZM187.041 31.371L197.685 8.10564H157.895L181.401 31.371H187.041Z" fill="#0B47DD"/>
<path fill-rule="evenodd" clip-rule="evenodd" d="M241.899 344.102L384.936 31.4554L385.01 31.3965L360.208 0.0927691L360.225 0.0552481H360.178L360.134 0L360.064 0.0552481H299.368L150.01 318.153H150.033L150.027 318.162L185.445 344.07L185.43 344.102H185.489L185.502 344.111L185.509 344.102H241.899ZM154.56 318.153L186.594 341.585L197.425 318.153H154.56ZM201.147 310.103H162.683L304.355 8.37366L329.24 33.004L201.147 310.103ZM204.103 310.103L331.71 34.0545H335.817L209.524 310.103H204.103ZM200.382 318.153L189.627 341.418H238.039L213.561 318.153H200.382ZM215.531 316.323L344.67 34.0545H380.796L240.708 340.253L215.531 316.323ZM345.898 31.371H381.566L358.954 2.8321L345.898 31.371ZM337.045 31.371L347.689 8.10564H307.899L331.404 31.371H337.045Z" fill="#0B47DD"/>
</g>
</svg>