<svg xmlns="http://www.w3.org/2000/svg" version="1.1" xmlns:xlink="http://www.w3.org/1999/xlink" xmlns:svgjs="http://svgjs.dev/svgjs" width="2000" height="1247" viewBox="0 0 2000 1247"><g transform="matrix(1,0,0,1,-1.2121212121212466,0.504858299595071)"><svg viewBox="0 0 396 247" data-background-color="#ffffff" preserveAspectRatio="xMidYMid meet" height="1247" width="2000" xmlns="http://www.w3.org/2000/svg" xmlns:xlink="http://www.w3.org/1999/xlink"><g id="tight-bounds" transform="matrix(1,0,0,1,0.2400000000000091,-0.09999999999999432)"><svg viewBox="0 0 395.52 247.2" height="247.2" width="395.52"><g><svg></svg></g><g><svg viewBox="0 0 395.52 247.2" height="247.2" width="395.52"><g transform="matrix(1,0,0,1,75.54432,91.96928986784141)"><svg viewBox="0 0 244.43135999999998 63.26142026431717" height="63.26142026431717" width="244.43135999999998"><g><svg viewBox="0 0 244.43135999999998 63.26142026431717" height="63.26142026431717" width="244.43135999999998"><g><svg viewBox="0 0 244.43135999999998 63.26142026431717" height="63.26142026431717" width="244.43135999999998"><g><svg viewBox="0 0 244.43135999999998 63.26142026431717" height="63.26142026431717" width="244.43135999999998"><g id="textblocktransform"><svg viewBox="0 0 244.43135999999998 63.26142026431717" height="63.26142026431717" width="244.43135999999998" id="textblock"><g><svg viewBox="0 0 244.43135999999998 63.26142026431717" height="63.26142026431717" width="244.43135999999998"><g transform="matrix(1,0,0,1,0,0)"><svg width="244.43135999999998" viewBox="1.3 -37 181.57999999999998 47" height="63.26142026431717" data-palette-color="#d7dbde"><path d="M13.65 0L9 0Q6.95 0 6.03-0.93 5.1-1.85 5.1-3.9L5.1-3.9 5.1-22.45 1.3-22.45 1.3-25.8 3.55-25.8Q4.7-25.8 5.08-26.38 5.45-26.95 5.45-28.1L5.45-28.1 5.45-32.9 8.9-32.9 8.9-25.8 13.9-25.8 13.9-22.45 8.9-22.45 8.9-3.35 13.65-3.35 13.65 0ZM23.5 0L19.7 0 19.7-25.8 23.5-25.8 23.5-21 24-21Q24.65-23.25 26.22-24.53 27.8-25.8 30.35-25.8L30.35-25.8 31.75-25.8 31.75-21.95 29.25-21.95Q26.55-21.95 25.02-20.75 23.5-19.55 23.5-17.15L23.5-17.15 23.5 0ZM47.1-12.8L51.05-25.8 54.75-25.8 44.55 6.6Q44.25 7.6 43.9 8.28 43.55 8.95 43.02 9.33 42.5 9.7 41.77 9.85 41.05 10 39.95 10L39.95 10 37.15 10 37.15 6.65 41.1 6.65 42.6 1.4 34.05-25.8 37.85-25.8 41.8-12.8 44.2-3.35 44.7-3.35 47.1-12.8ZM66.59 0.6L66.59 0.6Q63.39 0.6 61.12-0.7 58.84-2 57.24-4.3L57.24-4.3 59.89-6.5Q61.24-4.6 62.82-3.6 64.39-2.6 66.59-2.6L66.59-2.6Q68.84-2.6 70.17-3.73 71.49-4.85 71.49-6.95L71.49-6.95Q71.49-8.65 70.64-9.7 69.79-10.75 67.49-11.15L67.49-11.15 65.54-11.5Q61.79-12.2 59.97-13.85 58.14-15.5 58.14-18.85L58.14-18.85Q58.14-20.8 58.74-22.23 59.34-23.65 60.44-24.58 61.54-25.5 63.07-25.93 64.59-26.35 66.39-26.35L66.39-26.35Q69.29-26.35 71.27-25.33 73.24-24.3 74.69-22.35L74.69-22.35 72.24-20.1Q71.39-21.3 69.99-22.23 68.59-23.15 66.39-23.15L66.39-23.15Q61.84-23.15 61.84-19L61.84-19Q61.84-17.1 62.82-16.23 63.79-15.35 65.99-14.95L65.99-14.95 67.94-14.6Q71.89-13.9 73.54-12.15 75.19-10.4 75.19-7.4L75.19-7.4Q75.19-3.65 73.02-1.53 70.84 0.6 66.59 0.6ZM81.39 10L81.39-25.8 85.19-25.8 85.19-21.6 85.69-21.6Q86.44-24.15 88.12-25.28 89.79-26.4 92.19-26.4L92.19-26.4Q94.49-26.4 96.24-25.45 97.99-24.5 99.19-22.75 100.39-21 100.99-18.5 101.59-16 101.59-12.9L101.59-12.9Q101.59-9.8 100.99-7.3 100.39-4.8 99.19-3.05 97.99-1.3 96.24-0.35 94.49 0.6 92.19 0.6L92.19 0.6Q89.79 0.6 88.12-0.53 86.44-1.65 85.69-4.2L85.69-4.2 85.19-4.2 85.19 10 81.39 10ZM91.04-2.8L91.04-2.8Q94.19-2.8 95.84-4.78 97.49-6.75 97.49-10.3L97.49-10.3 97.49-15.5Q97.49-19.05 95.84-21.03 94.19-23 91.04-23L91.04-23Q89.84-23 88.77-22.65 87.69-22.3 86.92-21.65 86.14-21 85.67-20.1 85.19-19.2 85.19-18.1L85.19-18.1 85.19-7.7Q85.19-6.6 85.67-5.7 86.14-4.8 86.92-4.15 87.69-3.5 88.77-3.15 89.84-2.8 91.04-2.8ZM109.49-32.05L109.49-32.05Q107.14-32.05 107.14-34.1L107.14-34.1 107.14-34.9Q107.14-36.95 109.49-36.95L109.49-36.95Q111.84-36.95 111.84-34.9L111.84-34.9 111.84-34.1Q111.84-32.05 109.49-32.05ZM107.59 0L107.59-25.8 111.39-25.8 111.39 0 107.59 0ZM118.99 0L118.99-37 122.79-37 122.79-18 122.49-12.95 122.89-12.95 126.49-17.8 132.94-25.8 137.54-25.8 128.99-15.55 138.29 0 133.74 0 126.19-13.3 122.79-9.3 122.79 0 118.99 0ZM151.18 0.6L151.18 0.6Q148.93 0.6 146.98-0.15 145.03-0.9 143.63-2.55 142.23-4.2 141.43-6.75 140.63-9.3 140.63-12.9L140.63-12.9Q140.63-16.5 141.43-19.05 142.23-21.6 143.63-23.25 145.03-24.9 146.98-25.65 148.93-26.4 151.18-26.4L151.18-26.4Q153.43-26.4 155.31-25.65 157.18-24.9 158.48-23.25 159.78-21.6 160.51-19.05 161.23-16.5 161.23-12.9L161.23-12.9 161.23-11.95 144.68-11.95 144.68-10.3Q144.68-6.5 146.41-4.63 148.13-2.75 151.18-2.75L151.18-2.75Q153.78-2.75 155.43-3.88 157.08-5 158.03-7.25L158.03-7.25 160.63-5.35Q159.43-2.7 157.11-1.05 154.78 0.6 151.18 0.6ZM151.18-23.2L151.18-23.2Q148.08-23.2 146.38-21.25 144.68-19.3 144.68-15.5L144.68-15.5 144.68-14.85 157.18-14.85 157.18-15.5Q157.18-23.2 151.18-23.2ZM174.28 0.6L174.28 0.6Q171.08 0.6 168.81-0.7 166.53-2 164.93-4.3L164.93-4.3 167.58-6.5Q168.93-4.6 170.51-3.6 172.08-2.6 174.28-2.6L174.28-2.6Q176.53-2.6 177.86-3.73 179.18-4.85 179.18-6.95L179.18-6.95Q179.18-8.65 178.33-9.7 177.48-10.75 175.18-11.15L175.18-11.15 173.23-11.5Q169.48-12.2 167.66-13.85 165.83-15.5 165.83-18.85L165.83-18.85Q165.83-20.8 166.43-22.23 167.03-23.65 168.13-24.58 169.23-25.5 170.76-25.93 172.28-26.35 174.08-26.35L174.08-26.35Q176.98-26.35 178.96-25.33 180.93-24.3 182.38-22.35L182.38-22.35 179.93-20.1Q179.08-21.3 177.68-22.23 176.28-23.15 174.08-23.15L174.08-23.15Q169.53-23.15 169.53-19L169.53-19Q169.53-17.1 170.51-16.23 171.48-15.35 173.68-14.95L173.68-14.95 175.63-14.6Q179.58-13.9 181.23-12.15 182.88-10.4 182.88-7.4L182.88-7.4Q182.88-3.65 180.71-1.53 178.53 0.6 174.28 0.6Z" opacity="1" transform="matrix(1,0,0,1,0,0)" fill="#ffffff" class="wordmark-text-0" data-fill-palette-color="primary" id="text-0"></path></svg></g></svg></g></svg></g></svg></g></svg></g></svg></g></svg></g><path d="M194.578 85.969L194.578 27.835 386.108 27.835 386.108 219.365 194.578 219.365 194.578 161.231 200.283 161.231 200.283 213.66 380.403 213.66 380.403 33.54 200.283 33.54 200.283 85.969Z" fill="#ffffff" stroke="transparent" data-fill-palette-color="tertiary"></path></svg></g><defs></defs></svg><rect width="395.52" height="247.2" fill="none" stroke="none" visibility="hidden"></rect></g></svg></g></svg>